<?xml version="1.0" standalone="no"?>
 <!DOCTYPE svg PUBLIC "-//W3C//DTD SVG 1.1//EN" 
 "http://www.w3.org/Graphics/SVG/1.1/DTD/svg11.dtd"> 
<svg xmlns="http://www.w3.org/2000/svg" version="1.1" 
    width="29.7002cm" height="21.0007cm" viewBox="0 0 116930 82680 ">
<title>SVG Picture created as ESP_WS2812-B.Cu.svg date 2018/10/31 22:45:02 </title>
  <desc>Picture generated by PCBNEW </desc>
<g style="fill:#000000; fill-opacity:1;stroke:#000000; stroke-opacity:1;
stroke-linecap:round; stroke-linejoin:round; "
 transform="translate(0 0) scale(1 1)">
</g>
<g style="fill:#000000; fill-opacity:0.0; 
stroke:#000000; stroke-width:-0.000393701; stroke-opacity:1; 
stroke-linecap:round; stroke-linejoin:round;">
</g>
<g style="fill:#000000; fill-opacity:0.0; 
stroke:#000000; stroke-width:59.0551; stroke-opacity:1; 
stroke-linecap:round; stroke-linejoin:round;">
<path d="M54410 31299
L54410 40551
" />
<path d="M54410 31299
L45197 31299
" />
<path d="M45197 40551
L45197 31299
" />
<path d="M54410 40551
L45197 40551
" />
</g>
<g style="fill:#000000; fill-opacity:0.0; 
stroke:#000000; stroke-width:0; stroke-opacity:1; 
stroke-linecap:round; stroke-linejoin:round;">
</g>
<g style="fill:#000000; fill-opacity:1.0; 
stroke:#000000; stroke-width:0; stroke-opacity:1; 
stroke-linecap:round; stroke-linejoin:round;">
<polyline style="fill-rule:evenodd;"
points="48779,37371
48188,37371
48188,37765
48779,37765
48779,37371
" /> 
<polyline style="fill-rule:evenodd;"
points="48779,37962
48188,37962
48188,38356
48779,38356
48779,37962
" /> 
<polyline style="fill-rule:evenodd;"
points="48779,38553
48188,38553
48188,38947
48779,38947
48779,38553
" /> 
<polyline style="fill-rule:evenodd;"
points="50236,37765
49055,37765
49055,38552
50236,38552
50236,37765
" /> 
<polyline style="fill-rule:evenodd;"
points="48770,38356
49065,38553
49065,37765
48770,37962
48770,38356
" /> 
<polyline style="fill-rule:evenodd;"
points="47633,38039
47122,38039
47122,38216
47633,38216
47633,38039
" /> 
<polyline style="fill-rule:evenodd;"
points="47633,38295
47122,38295
47122,38472
47633,38472
47633,38295
" /> 
<polyline style="fill-rule:evenodd;"
points="47633,38551
47122,38551
47122,38728
47633,38728
47633,38551
" /> 
<polyline style="fill-rule:evenodd;"
points="47633,38807
47122,38807
47122,38984
47633,38984
47633,38807
" /> 
<polyline style="fill-rule:evenodd;"
points="47633,39063
47122,39063
47122,39240
47633,39240
47633,39063
" /> 
</g>
<g style="fill:#000000; fill-opacity:1.0; 
stroke:#000000; stroke-width:570.866; stroke-opacity:1; 
stroke-linecap:round; stroke-linejoin:round;">
</g>
<g style="fill:#000000; fill-opacity:0.0; 
stroke:#000000; stroke-width:570.866; stroke-opacity:1; 
stroke-linecap:round; stroke-linejoin:round;">
<path d="M47250 37222
L47466 37222
" />
<path d="M47250 40057
L47466 40057
" />
</g>
<g style="fill:#000000; fill-opacity:0.0; 
stroke:#000000; stroke-width:452.756; stroke-opacity:1; 
stroke-linecap:round; stroke-linejoin:round;">
<path d="M45852 37222
L46108 37222
" />
<path d="M45852 40057
L46108 40057
" />
</g>
<g style="fill:#000000; fill-opacity:1.0; 
stroke:#000000; stroke-width:0; stroke-opacity:1; 
stroke-linecap:round; stroke-linejoin:round;">
<circle cx="53268.6" cy="32100" r="393.5" /> 
</g>
<g style="fill:#000000; fill-opacity:1.0; 
stroke:#000000; stroke-width:39.3701; stroke-opacity:1; 
stroke-linecap:round; stroke-linejoin:round;">
</g>
<g style="fill:#000000; fill-opacity:1.0; 
stroke:#000000; stroke-width:0; stroke-opacity:1; 
stroke-linecap:round; stroke-linejoin:round;">
<circle cx="46268.6" cy="32100" r="334.646" /> 
</g>
<g style="fill:#000000; fill-opacity:1.0; 
stroke:#000000; stroke-width:39.3701; stroke-opacity:1; 
stroke-linecap:round; stroke-linejoin:round;">
</g>
<g style="fill:#000000; fill-opacity:1.0; 
stroke:#000000; stroke-width:669.291; stroke-opacity:1; 
stroke-linecap:round; stroke-linejoin:round;">
</g>
<g style="fill:#000000; fill-opacity:0.0; 
stroke:#000000; stroke-width:669.291; stroke-opacity:1; 
stroke-linecap:round; stroke-linejoin:round;">
<path d="M47268 32100
L47268 32100
" />
<path d="M48268 32100
L48268 32100
" />
</g>
<g style="fill:#000000; fill-opacity:0.0; 
stroke:#000000; stroke-width:0; stroke-opacity:1; 
stroke-linecap:round; stroke-linejoin:round;">
</g>
<g style="fill:#000000; fill-opacity:1.0; 
stroke:#000000; stroke-width:0; stroke-opacity:1; 
stroke-linecap:round; stroke-linejoin:round;">
<polyline style="fill-rule:evenodd;"
points="48933,32434
49603,32434
49603,31765
48933,31765
48933,32434
" /> 
</g>
<g style="fill:#000000; fill-opacity:1.0; 
stroke:#000000; stroke-width:669.291; stroke-opacity:1; 
stroke-linecap:round; stroke-linejoin:round;">
</g>
<g style="fill:#000000; fill-opacity:0.0; 
stroke:#000000; stroke-width:669.291; stroke-opacity:1; 
stroke-linecap:round; stroke-linejoin:round;">
<path d="M50268 32100
L50268 32100
" />
<path d="M51268 32100
L51268 32100
" />
<path d="M52268 32100
L52268 32100
" />
</g>
<g style="fill:#000000; fill-opacity:0.0; 
stroke:#000000; stroke-width:0; stroke-opacity:1; 
stroke-linecap:round; stroke-linejoin:round;">
</g>
<g style="fill:#000000; fill-opacity:1.0; 
stroke:#000000; stroke-width:0; stroke-opacity:1; 
stroke-linecap:round; stroke-linejoin:round;">
<polyline style="fill-rule:evenodd;"
points="50414,35344
50404,35345
50395,35348
50386,35351
50377,35355
50369,35360
50361,35366
50354,35372
50347,35379
50342,35387
50337,35395
50333,35404
50329,35413
50327,35423
50325,35432
50325,35442
50325,35806
50325,35816
50327,35825
50329,35835
50333,35844
50337,35852
50342,35861
50347,35868
50354,35876
50361,35882
50369,35888
50377,35893
50386,35897
50395,35900
50404,35902
50414,35904
50423,35904
50916,35904
50925,35904
50935,35902
50944,35900
50953,35897
50962,35893
50970,35888
50978,35882
50985,35876
50992,35868
50997,35861
51002,35852
51006,35844
51010,35835
51012,35825
51014,35816
51014,35806
51014,35442
51014,35432
51012,35423
51010,35413
51006,35404
51002,35395
50997,35387
50992,35379
50985,35372
50978,35366
50970,35360
50962,35355
50953,35351
50944,35348
50935,35345
50925,35344
50916,35343
50423,35343
50414,35344
" /> 
<polyline style="fill-rule:evenodd;"
points="50414,36515
50404,36517
50395,36519
50386,36522
50377,36526
50369,36531
50361,36537
50354,36543
50347,36551
50342,36558
50337,36567
50333,36575
50329,36584
50327,36594
50325,36603
50325,36613
50325,36977
50325,36987
50327,36996
50329,37006
50333,37015
50337,37024
50342,37032
50347,37040
50354,37047
50361,37053
50369,37059
50377,37064
50386,37068
50395,37071
50404,37074
50414,37075
50423,37076
50916,37076
50925,37075
50935,37074
50944,37071
50953,37068
50962,37064
50970,37059
50978,37053
50985,37047
50992,37040
50997,37032
51002,37024
51006,37015
51010,37006
51012,36996
51014,36987
51014,36977
51014,36613
51014,36603
51012,36594
51010,36584
51006,36575
51002,36567
50997,36558
50992,36551
50985,36543
50978,36537
50970,36531
50962,36526
50953,36522
50944,36519
50935,36517
50925,36515
50916,36515
50423,36515
50414,36515
" /> 
<polyline style="fill-rule:evenodd;"
points="49349,36525
49339,36527
49330,36529
49321,36532
49312,36536
49304,36541
49296,36547
49289,36553
49282,36561
49277,36568
49272,36577
49268,36585
49264,36594
49262,36604
49260,36613
49260,36623
49260,36987
49260,36997
49262,37006
49264,37016
49268,37025
49272,37034
49277,37042
49282,37050
49289,37057
49296,37063
49304,37069
49312,37074
49321,37078
49330,37081
49339,37084
49349,37085
49358,37086
49851,37086
49860,37085
49870,37084
49879,37081
49888,37078
49897,37074
49905,37069
49913,37063
49920,37057
49927,37050
49932,37042
49937,37034
49941,37025
49945,37016
49947,37006
49949,36997
49949,36987
49949,36623
49949,36613
49947,36604
49945,36594
49941,36585
49937,36577
49932,36568
49927,36561
49920,36553
49913,36547
49905,36541
49897,36536
49888,36532
49879,36529
49870,36527
49860,36525
49851,36525
49358,36525
49349,36525
" /> 
<polyline style="fill-rule:evenodd;"
points="49349,35354
49339,35355
49330,35358
49321,35361
49312,35365
49304,35370
49296,35376
49289,35382
49282,35389
49277,35397
49272,35405
49268,35414
49264,35423
49262,35433
49260,35442
49260,35452
49260,35816
49260,35826
49262,35835
49264,35845
49268,35854
49272,35862
49277,35871
49282,35878
49289,35886
49296,35892
49304,35898
49312,35903
49321,35907
49330,35910
49339,35912
49349,35914
49358,35914
49851,35914
49860,35914
49870,35912
49879,35910
49888,35907
49897,35903
49905,35898
49913,35892
49920,35886
49927,35878
49932,35871
49937,35862
49941,35854
49945,35845
49947,35835
49949,35826
49949,35816
49949,35452
49949,35442
49947,35433
49945,35423
49941,35414
49937,35405
49932,35397
49927,35389
49920,35382
49913,35376
49905,35370
49897,35365
49888,35361
49879,35358
49870,35355
49860,35354
49851,35353
49358,35353
49349,35354
" /> 
<polyline style="fill-rule:evenodd;"
points="52190,34599
52181,34601
52172,34603
52162,34606
52154,34611
52145,34615
52138,34621
52130,34628
52124,34635
52118,34643
52113,34651
52109,34660
52106,34669
52104,34678
52102,34688
52102,34697
52102,35052
52102,35061
52104,35071
52106,35080
52109,35089
52113,35098
52118,35106
52124,35114
52130,35121
52138,35128
52145,35134
52154,35138
52162,35143
52172,35146
52181,35148
52190,35150
52200,35150
52456,35150
52466,35150
52475,35148
52485,35146
52494,35143
52502,35138
52511,35134
52518,35128
52526,35121
52532,35114
52538,35106
52543,35098
52547,35089
52550,35080
52553,35071
52554,35061
52554,35052
52554,34697
52554,34688
52553,34678
52550,34669
52547,34660
52543,34651
52538,34643
52532,34635
52526,34628
52518,34621
52511,34615
52502,34611
52494,34606
52485,34603
52475,34601
52466,34599
52456,34599
52200,34599
52190,34599
" /> 
<polyline style="fill-rule:evenodd;"
points="51383,34599
51374,34601
51364,34603
51355,34606
51347,34611
51338,34615
51331,34621
51323,34628
51317,34635
51311,34643
51306,34651
51302,34660
51299,34669
51296,34678
51295,34688
51295,34697
51295,35052
51295,35061
51296,35071
51299,35080
51302,35089
51306,35098
51311,35106
51317,35114
51323,35121
51331,35128
51338,35134
51347,35138
51355,35143
51364,35146
51374,35148
51383,35150
51393,35150
51649,35150
51659,35150
51668,35148
51677,35146
51687,35143
51695,35138
51704,35134
51711,35128
51719,35121
51725,35114
51731,35106
51736,35098
51740,35089
51743,35080
51745,35071
51747,35061
51747,35052
51747,34697
51747,34688
51745,34678
51743,34669
51740,34660
51736,34651
51731,34643
51725,34635
51719,34628
51711,34621
51704,34615
51695,34611
51687,34606
51677,34603
51668,34601
51659,34599
51649,34599
51393,34599
51383,34599
" /> 
<polyline style="fill-rule:evenodd;"
points="49353,34582
49343,34584
49334,34586
49325,34589
49316,34593
49308,34598
49300,34604
49293,34610
49286,34618
49280,34625
49276,34634
49271,34642
49268,34652
49266,34661
49264,34670
49264,34680
49264,34936
49264,34946
49266,34955
49268,34965
49271,34974
49276,34982
49280,34991
49286,34998
49293,35006
49300,35012
49308,35018
49316,35023
49325,35027
49334,35030
49343,35033
49353,35034
49362,35034
49717,35034
49726,35034
49736,35033
49745,35030
49754,35027
49763,35023
49771,35018
49779,35012
49786,35006
49793,34998
49799,34991
49803,34982
49808,34974
49811,34965
49813,34955
49815,34946
49815,34936
49815,34680
49815,34670
49813,34661
49811,34652
49808,34642
49803,34634
49799,34625
49793,34618
49786,34610
49779,34604
49771,34598
49763,34593
49754,34589
49745,34586
49736,34584
49726,34582
49717,34582
49362,34582
49353,34582
" /> 
<polyline style="fill-rule:evenodd;"
points="49353,33775
49343,33776
49334,33779
49325,33782
49316,33786
49308,33791
49300,33797
49293,33803
49286,33811
49280,33818
49276,33827
49271,33835
49268,33844
49266,33854
49264,33863
49264,33873
49264,34129
49264,34139
49266,34148
49268,34157
49271,34167
49276,34175
49280,34184
49286,34191
49293,34199
49300,34205
49308,34211
49316,34216
49325,34220
49334,34223
49343,34225
49353,34227
49362,34227
49717,34227
49726,34227
49736,34225
49745,34223
49754,34220
49763,34216
49771,34211
49779,34205
49786,34199
49793,34191
49799,34184
49803,34175
49808,34167
49811,34157
49813,34148
49815,34139
49815,34129
49815,33873
49815,33863
49813,33854
49811,33844
49808,33835
49803,33827
49799,33818
49793,33811
49786,33803
49779,33797
49771,33791
49763,33786
49754,33782
49745,33779
49736,33776
49726,33775
49717,33775
49362,33775
49353,33775
" /> 
<polyline style="fill-rule:evenodd;"
points="46900,33724
46891,33726
46882,33728
46872,33731
46864,33736
46855,33740
46848,33746
46840,33753
46834,33760
46828,33768
46823,33776
46819,33785
46816,33794
46814,33803
46812,33813
46812,33822
46812,34177
46812,34186
46814,34196
46816,34205
46819,34214
46823,34223
46828,34231
46834,34239
46840,34246
46848,34253
46855,34259
46864,34263
46872,34268
46882,34271
46891,34273
46900,34275
46910,34275
47166,34275
47176,34275
47185,34273
47195,34271
47204,34268
47212,34263
47221,34259
47228,34253
47236,34246
47242,34239
47248,34231
47253,34223
47257,34214
47260,34205
47263,34196
47264,34186
47264,34177
47264,33822
47264,33813
47263,33803
47260,33794
47257,33785
47253,33776
47248,33768
47242,33760
47236,33753
47228,33746
47221,33740
47212,33736
47204,33731
47195,33728
47185,33726
47176,33724
47166,33724
46910,33724
46900,33724
" /> 
<polyline style="fill-rule:evenodd;"
points="46093,33724
46084,33726
46074,33728
46065,33731
46057,33736
46048,33740
46041,33746
46033,33753
46027,33760
46021,33768
46016,33776
46012,33785
46009,33794
46006,33803
46005,33813
46005,33822
46005,34177
46005,34186
46006,34196
46009,34205
46012,34214
46016,34223
46021,34231
46027,34239
46033,34246
46041,34253
46048,34259
46057,34263
46065,34268
46074,34271
46084,34273
46093,34275
46103,34275
46359,34275
46369,34275
46378,34273
46387,34271
46397,34268
46405,34263
46414,34259
46421,34253
46429,34246
46435,34239
46441,34231
46446,34223
46450,34214
46453,34205
46455,34196
46457,34186
46457,34177
46457,33822
46457,33813
46455,33803
46453,33794
46450,33785
46446,33776
46441,33768
46435,33760
46429,33753
46421,33746
46414,33740
46405,33736
46397,33731
46387,33728
46378,33726
46369,33724
46359,33724
46103,33724
46093,33724
" /> 
<polyline style="fill-rule:evenodd;"
points="51503,36637
51493,36639
51484,36641
51475,36644
51466,36648
51458,36653
51450,36659
51443,36665
51436,36673
51430,36680
51426,36689
51421,36697
51418,36707
51416,36716
51414,36725
51414,36735
51414,36991
51414,37001
51416,37010
51418,37020
51421,37029
51426,37037
51430,37046
51436,37053
51443,37061
51450,37067
51458,37073
51466,37078
51475,37082
51484,37085
51493,37088
51503,37089
51512,37089
51867,37089
51876,37089
51886,37088
51895,37085
51904,37082
51913,37078
51921,37073
51929,37067
51936,37061
51943,37053
51949,37046
51953,37037
51958,37029
51961,37020
51963,37010
51965,37001
51965,36991
51965,36735
51965,36725
51963,36716
51961,36707
51958,36697
51953,36689
51949,36680
51943,36673
51936,36665
51929,36659
51921,36653
51913,36648
51904,36644
51895,36641
51886,36639
51876,36637
51867,36637
51512,36637
51503,36637
" /> 
<polyline style="fill-rule:evenodd;"
points="51503,35830
51493,35831
51484,35834
51475,35837
51466,35841
51458,35846
51450,35852
51443,35858
51436,35866
51430,35873
51426,35882
51421,35890
51418,35899
51416,35909
51414,35918
51414,35928
51414,36184
51414,36194
51416,36203
51418,36212
51421,36222
51426,36230
51430,36239
51436,36246
51443,36254
51450,36260
51458,36266
51466,36271
51475,36275
51484,36278
51493,36280
51503,36282
51512,36282
51867,36282
51876,36282
51886,36280
51895,36278
51904,36275
51913,36271
51921,36266
51929,36260
51936,36254
51943,36246
51949,36239
51953,36230
51958,36222
51961,36212
51963,36203
51965,36194
51965,36184
51965,35928
51965,35918
51963,35909
51961,35899
51958,35890
51953,35882
51949,35873
51943,35866
51936,35858
51929,35852
51921,35846
51913,35841
51904,35837
51895,35834
51886,35831
51876,35830
51867,35830
51512,35830
51503,35830
" /> 
<polyline style="fill-rule:evenodd;"
points="51140,33649
51131,33651
51122,33653
51112,33656
51104,33661
51095,33665
51088,33671
51080,33678
51074,33685
51068,33693
51063,33701
51059,33710
51056,33719
51054,33728
51052,33738
51052,33747
51052,34102
51052,34111
51054,34121
51056,34130
51059,34139
51063,34148
51068,34156
51074,34164
51080,34171
51088,34178
51095,34184
51104,34188
51112,34193
51122,34196
51131,34198
51140,34200
51150,34200
51406,34200
51416,34200
51425,34198
51435,34196
51444,34193
51452,34188
51461,34184
51468,34178
51476,34171
51482,34164
51488,34156
51493,34148
51497,34139
51500,34130
51503,34121
51504,34111
51504,34102
51504,33747
51504,33738
51503,33728
51500,33719
51497,33710
51493,33701
51488,33693
51482,33685
51476,33678
51468,33671
51461,33665
51452,33661
51444,33656
51435,33653
51425,33651
51416,33649
51406,33649
51150,33649
51140,33649
" /> 
<polyline style="fill-rule:evenodd;"
points="50333,33649
50324,33651
50314,33653
50305,33656
50297,33661
50288,33665
50281,33671
50273,33678
50267,33685
50261,33693
50256,33701
50252,33710
50249,33719
50246,33728
50245,33738
50245,33747
50245,34102
50245,34111
50246,34121
50249,34130
50252,34139
50256,34148
50261,34156
50267,34164
50273,34171
50281,34178
50288,34184
50297,34188
50305,34193
50314,34196
50324,34198
50333,34200
50343,34200
50599,34200
50609,34200
50618,34198
50627,34196
50637,34193
50645,34188
50654,34184
50661,34178
50669,34171
50675,34164
50681,34156
50686,34148
50690,34139
50693,34130
50695,34121
50697,34111
50697,34102
50697,33747
50697,33738
50695,33728
50693,33719
50690,33710
50686,33701
50681,33693
50675,33685
50669,33678
50661,33671
50654,33665
50645,33661
50637,33656
50627,33653
50618,33651
50609,33649
50599,33649
50343,33649
50333,33649
" /> 
<polyline style="fill-rule:evenodd;"
points="53030,33634
53021,33636
53012,33638
53002,33641
52994,33646
52985,33650
52978,33656
52970,33663
52964,33670
52958,33678
52953,33686
52949,33695
52946,33704
52944,33713
52942,33723
52942,33732
52942,34087
52942,34096
52944,34106
52946,34115
52949,34124
52953,34133
52958,34141
52964,34149
52970,34156
52978,34163
52985,34169
52994,34173
53002,34178
53012,34181
53021,34183
53030,34185
53040,34185
53296,34185
53306,34185
53315,34183
53325,34181
53334,34178
53342,34173
53351,34169
53358,34163
53366,34156
53372,34149
53378,34141
53383,34133
53387,34124
53390,34115
53393,34106
53394,34096
53394,34087
53394,33732
53394,33723
53393,33713
53390,33704
53387,33695
53383,33686
53378,33678
53372,33670
53366,33663
53358,33656
53351,33650
53342,33646
53334,33641
53325,33638
53315,33636
53306,33634
53296,33634
53040,33634
53030,33634
" /> 
<polyline style="fill-rule:evenodd;"
points="52223,33634
52214,33636
52204,33638
52195,33641
52187,33646
52178,33650
52171,33656
52163,33663
52157,33670
52151,33678
52146,33686
52142,33695
52139,33704
52136,33713
52135,33723
52135,33732
52135,34087
52135,34096
52136,34106
52139,34115
52142,34124
52146,34133
52151,34141
52157,34149
52163,34156
52171,34163
52178,34169
52187,34173
52195,34178
52204,34181
52214,34183
52223,34185
52233,34185
52489,34185
52499,34185
52508,34183
52517,34181
52527,34178
52535,34173
52544,34169
52551,34163
52559,34156
52565,34149
52571,34141
52576,34133
52580,34124
52583,34115
52585,34106
52587,34096
52587,34087
52587,33732
52587,33723
52585,33713
52583,33704
52580,33695
52576,33686
52571,33678
52565,33670
52559,33663
52551,33656
52544,33650
52535,33646
52527,33641
52517,33638
52508,33636
52499,33634
52489,33634
52233,33634
52223,33634
" /> 
<polyline style="fill-rule:evenodd;"
points="48824,33707
48155,33707
48155,35006
48824,35006
48824,33707
" /> 
<polyline style="fill-rule:evenodd;"
points="48824,35873
48155,35873
48155,37172
48824,37172
48824,35873
" /> 
<circle cx="48490" cy="34357.3" r="175" /> 
</g>
<g style="fill:#000000; fill-opacity:1.0; 
stroke:#000000; stroke-width:39.3701; stroke-opacity:1; 
stroke-linecap:round; stroke-linejoin:round;">
</g>
<g style="fill:#000000; fill-opacity:1.0; 
stroke:#000000; stroke-width:0; stroke-opacity:1; 
stroke-linecap:round; stroke-linejoin:round;">
<circle cx="46019.4" cy="33988.9" r="175" /> 
</g>
<g style="fill:#000000; fill-opacity:1.0; 
stroke:#000000; stroke-width:39.3701; stroke-opacity:1; 
stroke-linecap:round; stroke-linejoin:round;">
</g>
<g style="fill:#000000; fill-opacity:1.0; 
stroke:#000000; stroke-width:0; stroke-opacity:1; 
stroke-linecap:round; stroke-linejoin:round;">
<circle cx="51690" cy="36090.9" r="175" /> 
</g>
<g style="fill:#000000; fill-opacity:1.0; 
stroke:#000000; stroke-width:39.3701; stroke-opacity:1; 
stroke-linecap:round; stroke-linejoin:round;">
</g>
<g style="fill:#000000; fill-opacity:1.0; 
stroke:#000000; stroke-width:0; stroke-opacity:1; 
stroke-linecap:round; stroke-linejoin:round;">
<circle cx="47200.6" cy="36351.1" r="175" /> 
</g>
<g style="fill:#000000; fill-opacity:1.0; 
stroke:#000000; stroke-width:39.3701; stroke-opacity:1; 
stroke-linecap:round; stroke-linejoin:round;">
</g>
<g style="fill:#000000; fill-opacity:1.0; 
stroke:#000000; stroke-width:0; stroke-opacity:1; 
stroke-linecap:round; stroke-linejoin:round;">
<circle cx="46049.4" cy="33065" r="175" /> 
</g>
<g style="fill:#000000; fill-opacity:1.0; 
stroke:#000000; stroke-width:39.3701; stroke-opacity:1; 
stroke-linecap:round; stroke-linejoin:round;">
</g>
<g style="fill:#000000; fill-opacity:1.0; 
stroke:#000000; stroke-width:0; stroke-opacity:1; 
stroke-linecap:round; stroke-linejoin:round;">
<circle cx="52328.5" cy="34875" r="175" /> 
</g>
<g style="fill:#000000; fill-opacity:1.0; 
stroke:#000000; stroke-width:39.3701; stroke-opacity:1; 
stroke-linecap:round; stroke-linejoin:round;">
</g>
<g style="fill:#000000; fill-opacity:1.0; 
stroke:#000000; stroke-width:0; stroke-opacity:1; 
stroke-linecap:round; stroke-linejoin:round;">
<circle cx="50087.5" cy="33354.3" r="175" /> 
</g>
<g style="fill:#000000; fill-opacity:1.0; 
stroke:#000000; stroke-width:39.3701; stroke-opacity:1; 
stroke-linecap:round; stroke-linejoin:round;">
</g>
<g style="fill:#000000; fill-opacity:1.0; 
stroke:#000000; stroke-width:0; stroke-opacity:1; 
stroke-linecap:round; stroke-linejoin:round;">
<circle cx="54024.5" cy="33354.3" r="175" /> 
</g>
<g style="fill:#000000; fill-opacity:1.0; 
stroke:#000000; stroke-width:39.3701; stroke-opacity:1; 
stroke-linecap:round; stroke-linejoin:round;">
</g>
<g style="fill:#000000; fill-opacity:1.0; 
stroke:#000000; stroke-width:0; stroke-opacity:1; 
stroke-linecap:round; stroke-linejoin:round;">
<circle cx="48484" cy="38750" r="175" /> 
</g>
<g style="fill:#000000; fill-opacity:1.0; 
stroke:#000000; stroke-width:39.3701; stroke-opacity:1; 
stroke-linecap:round; stroke-linejoin:round;">
</g>
<g style="fill:#000000; fill-opacity:1.0; 
stroke:#000000; stroke-width:0; stroke-opacity:1; 
stroke-linecap:round; stroke-linejoin:round;">
<circle cx="49663" cy="36969.2" r="236.22" /> 
</g>
<g style="fill:#000000; fill-opacity:1.0; 
stroke:#000000; stroke-width:39.3701; stroke-opacity:1; 
stroke-linecap:round; stroke-linejoin:round;">
</g>
<g style="fill:#000000; fill-opacity:1.0; 
stroke:#000000; stroke-width:0; stroke-opacity:1; 
stroke-linecap:round; stroke-linejoin:round;">
<circle cx="49065" cy="39305" r="175" /> 
</g>
<g style="fill:#000000; fill-opacity:1.0; 
stroke:#000000; stroke-width:39.3701; stroke-opacity:1; 
stroke-linecap:round; stroke-linejoin:round;">
</g>
<g style="fill:#000000; fill-opacity:1.0; 
stroke:#000000; stroke-width:0; stroke-opacity:1; 
stroke-linecap:round; stroke-linejoin:round;">
<circle cx="48010" cy="39305" r="175" /> 
</g>
<g style="fill:#000000; fill-opacity:1.0; 
stroke:#000000; stroke-width:39.3701; stroke-opacity:1; 
stroke-linecap:round; stroke-linejoin:round;">
</g>
<g style="fill:#000000; fill-opacity:1.0; 
stroke:#000000; stroke-width:0; stroke-opacity:1; 
stroke-linecap:round; stroke-linejoin:round;">
<circle cx="48004.6" cy="39733.7" r="175" /> 
</g>
<g style="fill:#000000; fill-opacity:1.0; 
stroke:#000000; stroke-width:39.3701; stroke-opacity:1; 
stroke-linecap:round; stroke-linejoin:round;">
</g>
<g style="fill:#000000; fill-opacity:1.0; 
stroke:#000000; stroke-width:0; stroke-opacity:1; 
stroke-linecap:round; stroke-linejoin:round;">
<circle cx="50874.9" cy="39811" r="175" /> 
</g>
<g style="fill:#000000; fill-opacity:1.0; 
stroke:#000000; stroke-width:39.3701; stroke-opacity:1; 
stroke-linecap:round; stroke-linejoin:round;">
</g>
<g style="fill:#000000; fill-opacity:1.0; 
stroke:#000000; stroke-width:0; stroke-opacity:1; 
stroke-linecap:round; stroke-linejoin:round;">
<circle cx="49398.1" cy="34001.5" r="175" /> 
</g>
<g style="fill:#000000; fill-opacity:1.0; 
stroke:#000000; stroke-width:39.3701; stroke-opacity:1; 
stroke-linecap:round; stroke-linejoin:round;">
</g>
<g style="fill:#000000; fill-opacity:1.0; 
stroke:#000000; stroke-width:140.079; stroke-opacity:1; 
stroke-linecap:round; stroke-linejoin:round;">
</g>
<g style="fill:#000000; fill-opacity:0.0; 
stroke:#000000; stroke-width:140.079; stroke-opacity:1; 
stroke-linecap:round; stroke-linejoin:round;">
<path d="M49605 34873
L49540 34808
" />
<path d="M49605 35634
L49605 34873
" />
<path d="M48941 34808
L48490 34357
" />
<path d="M49540 34808
L48941 34808
" />
</g>
<g style="fill:#000000; fill-opacity:0.0; 
stroke:#000000; stroke-width:120; stroke-opacity:1; 
stroke-linecap:round; stroke-linejoin:round;">
<path d="M46030 34000
L46019 33988
" />
<path d="M46231 34000
L46030 34000
" />
<path d="M51690 36040
L51690 36090
" />
<path d="M51690 35980
L51690 36090
" />
<path d="M51375 36056
L51690 36056
" />
<path d="M49263 36056
L51375 36056
" />
<path d="M47777 35734
L48941 35734
" />
<path d="M47200 36311
L47777 35734
" />
<path d="M48941 35734
L49263 36056
" />
<path d="M47200 36351
L47200 36311
" />
<path d="M46369 33065
L46049 33065
" />
<path d="M49954 33775
L49244 33065
" />
<path d="M49954 34048
L49954 33775
" />
<path d="M49244 33065
L46369 33065
" />
<path d="M50272 34366
L49954 34048
" />
<path d="M51013 34366
L50272 34366
" />
<path d="M51521 34875
L51013 34366
" />
<path d="M48484 36528
L48490 36522
" />
<path d="M48484 37568
L48484 36528
" />
<path d="M50471 33738
L50087 33354
" />
<path d="M50471 33925
L50471 33738
" />
<path d="M53724 33354
L53168 33910
" />
<path d="M54024 33354
L53724 33354
" />
<path d="M48584 38850
L48484 38750
" />
<path d="M48484 38750
L48706 38750
" />
<path d="M50750 37256
L50750 36971
" />
<path d="M50750 38327
L50750 37256
" />
<path d="M50327 38750
L50750 38327
" />
<path d="M48484 38750
L50327 38750
" />
<path d="M51547 36971
L51690 36829
" />
<path d="M50750 36971
L51547 36971
" />
<path d="M48512 38778
L48484 38750
" />
<path d="M49646 36986
L49663 36969
" />
</g>
<g style="fill:#000000; fill-opacity:0.0; 
stroke:#000000; stroke-width:160; stroke-opacity:1; 
stroke-linecap:round; stroke-linejoin:round;">
<path d="M49663 38142
L49646 38159
" />
<path d="M49663 36969
L49663 38142
" />
<path d="M49646 38159
L48484 38159
" />
<path d="M48453 38128
L47378 38128
" />
<path d="M48484 38159
L48453 38128
" />
</g>
<g style="fill:#000000; fill-opacity:0.0; 
stroke:#000000; stroke-width:120; stroke-opacity:1; 
stroke-linecap:round; stroke-linejoin:round;">
<path d="M52361 32192
L52268 32100
" />
<path d="M52361 33910
L52361 32192
" />
<path d="M51278 32109
L51268 32100
" />
<path d="M51278 33925
L51278 32109
" />
<path d="M49065 39305
L48010 39305
" />
<path d="M50874 39811
L48081 39811
" />
<path d="M48081 39811
L48004 39733
" />
</g>
<g style="fill:#000000; fill-opacity:1.0; 
stroke:#000000; stroke-width:100; stroke-opacity:1; 
stroke-linecap:round; stroke-linejoin:round;">
<polyline style="fill-rule:evenodd;"
points="51762,32304
51646,32478
51528,32557
51528,33484
51613,33541
51676,33636
51698,33747
51698,34102
51676,34213
51613,34308
51518,34372
51406,34394
51394,34394
51405,34405
51649,34405
51761,34427
51855,34491
51919,34586
51925,34614
51930,34586
51994,34491
52088,34427
52200,34405
52456,34405
52568,34427
52663,34491
52726,34586
52748,34697
52748,35052
52726,35163
52663,35258
52568,35322
52456,35344
52200,35344
52088,35322
51994,35258
51930,35163
51925,35135
51919,35163
51855,35258
51761,35322
51649,35344
51393,35344
51281,35322
51264,35310
51264,35511
51201,35574
50720,35574
50720,35156
50782,35093
51064,35093
51113,35114
51101,35052
51101,34808
50909,34616
50297,34616
50272,34621
50247,34616
50247,34616
50174,34602
50092,34546
50078,34525
50051,34499
50065,34532
50065,34696
50003,34758
49590,34758
49590,34750
49490,34750
49490,34758
49482,34758
49482,34858
49490,34858
49490,34866
49590,34866
49590,34858
50003,34858
50065,34921
50065,35084
50049,35124
50091,35141
50132,35183
50183,35131
50275,35093
50557,35093
50620,35156
50620,35574
50146,35574
50136,35584
49655,35584
49655,35576
49555,35576
49555,35584
49547,35584
49547,35684
49555,35684
49555,35692
49655,35692
49655,35684
50128,35684
50138,35674
50620,35674
50620,35682
50720,35682
50720,35674
51201,35674
51264,35736
51264,35784
51306,35721
51401,35658
51512,35636
51867,35636
51978,35658
52073,35721
52137,35816
52159,35928
52159,36184
52137,36296
52073,36390
51978,36454
51950,36460
51978,36465
52073,36529
52137,36623
52159,36735
52159,36991
52137,37103
52073,37198
51978,37261
51867,37283
51512,37283
51401,37261
51340,37221
51067,37221
51027,37247
51000,37253
51000,37281
50999,37281
51000,38302
51004,38327
51000,38351
51000,38351
50985,38424
50930,38507
50909,38521
50521,38909
50507,38930
50486,38944
50486,38944
50424,38985
50327,39004
50302,39000
49276,39000
49374,39098
49430,39232
49430,39377
49374,39511
49325,39561
50608,39561
50668,39501
50802,39446
50947,39446
51081,39501
51184,39604
51239,39738
51239,39883
51184,40017
51081,40120
50947,40176
50802,40176
50668,40120
50608,40061
48168,40061
48077,40098
48002,40098
48002,40107
47936,40107
47985,40190
47980,40216
47917,40331
54190,40331
54190,33680
54097,33719
53951,33719
53817,33663
53793,33639
53588,33843
53588,34087
53566,34198
53503,34293
53408,34357
53296,34379
53040,34379
52928,34357
52834,34293
52770,34198
52765,34170
52759,34198
52695,34293
52601,34357
52489,34379
52233,34379
52121,34357
52026,34293
51963,34198
51941,34087
51941,33732
51963,33621
52026,33526
52111,33469
52111,32603
52063,32594
51890,32478
51774,32304
51768,32275
51762,32304
" /> 
<polyline style="fill-rule:evenodd;"
points="45417,37040
45480,36921
45623,36801
45802,36746
45930,36746
45930,37172
45922,37172
45922,37272
45930,37272
45930,37699
45802,37699
45623,37643
45480,37524
45417,37404
45417,39875
45480,39755
45623,39636
45802,39580
45930,39580
45930,40007
45922,40007
45922,40107
45930,40107
45930,40115
46030,40115
46030,40107
46519,40107
46568,40180
46567,40193
46494,40331
46798,40331
46736,40216
46731,40190
46779,40107
47308,40107
47308,40115
47408,40115
47408,40107
47416,40107
47416,40007
47408,40007
47408,39521
47516,39521
47677,39569
47695,39526
47705,39516
47700,39511
47690,39487
47683,39490
47490,39490
47428,39427
47428,39196
47435,39196
47435,39178
47320,39178
47320,39196
47328,39196
47328,39427
47291,39463
47280,39521
47308,39521
47308,40007
46779,40007
46736,39933
46568,39933
46519,40007
46030,40007
46030,39580
46158,39580
46336,39636
46480,39755
46567,39921
46568,39933
46736,39933
46731,39924
46736,39898
46813,39755
46809,39754
46694,39677
46617,39562
46590,39427
46617,39291
46694,39176
46809,39100
46907,39080
46872,39045
46872,39013
46910,38921
46928,38903
46928,38807
46936,38767
46928,38728
46928,38551
46936,38512
46928,38472
46928,38295
46936,38256
46928,38216
46928,38200
46910,38200
46809,38179
46694,38103
46617,37988
46590,37852
46617,37717
46694,37602
46809,37525
46813,37524
46736,37381
46731,37355
46736,37346
46568,37346
46567,37358
46480,37524
46336,37643
46158,37699
46030,37699
46030,37272
46519,37272
46568,37346
46736,37346
46779,37272
47308,37272
47308,37758
47280,37758
47297,37845
47633,37845
47695,37858
48022,37858
48009,37839
47994,37765
47994,37371
48009,37296
48009,37296
47993,37272
47936,37272
47985,37355
47980,37381
47880,37565
47717,37698
47516,37758
47408,37758
47408,37272
47416,37272
47416,37172
47408,37172
47408,36687
47516,36687
47717,36747
47880,36879
47961,37029
47961,35984
47881,35984
47565,36300
47565,36423
47509,36557
47407,36660
47308,36701
47308,37172
46779,37172
46736,37099
46568,37099
46519,37172
46030,37172
46030,36746
46158,36746
46336,36801
46480,36921
46567,37086
46568,37099
46736,37099
46731,37089
46736,37063
46836,36879
46998,36747
47117,36711
46993,36660
46891,36557
46835,36423
46835,36278
46891,36144
46993,36041
47127,35986
47172,35986
47583,35574
47597,35554
47680,35498
47753,35484
47753,35484
47777,35479
47802,35484
48916,35484
48941,35479
48966,35484
48966,35484
49010,35493
49010,35304
49048,35212
49068,35192
49052,35176
49038,35143
49036,35148
48966,35218
48874,35256
48602,35256
48540,35194
48540,34407
48440,34407
48440,35194
48377,35256
48105,35256
48013,35218
47943,35148
47905,35056
47905,34469
47967,34407
48440,34407
48540,34407
49012,34407
49050,34445
49052,34440
49122,34370
49175,34348
49156,34335
49092,34241
49084,34197
49074,34174
49074,34244
49012,34307
48540,34307
48540,33520
48440,33520
48440,34307
47967,34307
47905,34244
47905,34112
47514,34112
47514,34325
47476,34417
47406,34487
47314,34525
47151,34525
47088,34463
47088,34050
47452,34050
47514,34112
47905,34112
47905,33674
47514,33674
47514,33887
47452,33950
47088,33950
47088,33536
46988,33536
46988,33950
46980,33950
46980,34050
46988,34050
46988,34463
46926,34525
46762,34525
46670,34487
46600,34417
46578,34364
46565,34383
46471,34447
46359,34469
46103,34469
45991,34447
45896,34383
45850,34313
45812,34298
45710,34195
45654,34061
45654,33916
45710,33782
45812,33679
45870,33655
45896,33616
45991,33552
46103,33530
46359,33530
46471,33552
46565,33616
46578,33635
46600,33582
46670,33512
46762,33474
46926,33474
46988,33536
47088,33536
47151,33474
47314,33474
47406,33512
47476,33582
47514,33674
47905,33674
47905,33657
47943,33566
48013,33495
48105,33457
48377,33457
48440,33520
48540,33520
48602,33457
48874,33457
48966,33495
49036,33566
49074,33657
49074,33828
49084,33805
49092,33761
49156,33666
49251,33603
49362,33581
49406,33581
49140,33315
46315,33315
46256,33374
46121,33430
45976,33430
45842,33374
45739,33271
45684,33137
45684,32992
45739,32858
45842,32755
45976,32700
46121,32700
46256,32755
46315,32815
49219,32815
49244,32810
49268,32815
49268,32815
49341,32829
49424,32884
49438,32905
49749,33216
49778,33147
49880,33044
50014,32989
50160,32989
50294,33044
50396,33147
50452,33281
50452,33365
50542,33455
50599,33455
50711,33477
50805,33541
50869,33636
50875,33664
50880,33636
50944,33541
51028,33484
51028,32570
50890,32478
50774,32304
50768,32275
50762,32304
50646,32478
50473,32594
50320,32624
50216,32624
50063,32594
49890,32478
49853,32422
49853,32484
49815,32576
49744,32646
49652,32684
49381,32684
49318,32622
49318,32150
49326,32150
49326,32050
49318,32050
49318,32042
49218,32042
49218,32050
49210,32050
49210,32150
49218,32150
49218,32622
49156,32684
48884,32684
48792,32646
48721,32576
48683,32484
48683,32422
48646,32478
48473,32594
48320,32624
48216,32624
48063,32594
47890,32478
47774,32304
47768,32275
47762,32304
47646,32478
47473,32594
47320,32624
47216,32624
47063,32594
46890,32478
46774,32304
46767,32267
46713,32397
46565,32544
46372,32624
46164,32624
45971,32544
45823,32397
45743,32204
45743,31995
45823,31802
45971,31655
46164,31575
46372,31575
46565,31655
46713,31802
46767,31932
46774,31895
46890,31721
47063,31605
47216,31575
47320,31575
47473,31605
47646,31721
47762,31895
47768,31924
47774,31895
47890,31721
48063,31605
48216,31575
48320,31575
48473,31605
48646,31721
48683,31777
48683,31715
48721,31623
48792,31553
48876,31518
45417,31518
45417,37040
" /> 
</g>
<g style="fill:#FFFFFF; fill-opacity:1.0; 
stroke:#FFFFFF; stroke-width:100; stroke-opacity:1; 
stroke-linecap:round; stroke-linejoin:round;">
</g>
<g style="fill:#FFFFFF; fill-opacity:1.0; 
stroke:#FFFFFF; stroke-width:0; stroke-opacity:1; 
stroke-linecap:round; stroke-linejoin:round;">
<circle cx="48490" cy="34357.3" r="125" /> 
</g>
<g style="fill:#FFFFFF; fill-opacity:1.0; 
stroke:#FFFFFF; stroke-width:39.3701; stroke-opacity:1; 
stroke-linecap:round; stroke-linejoin:round;">
</g>
<g style="fill:#FFFFFF; fill-opacity:1.0; 
stroke:#FFFFFF; stroke-width:0; stroke-opacity:1; 
stroke-linecap:round; stroke-linejoin:round;">
<circle cx="46019.4" cy="33988.9" r="125" /> 
</g>
<g style="fill:#FFFFFF; fill-opacity:1.0; 
stroke:#FFFFFF; stroke-width:39.3701; stroke-opacity:1; 
stroke-linecap:round; stroke-linejoin:round;">
</g>
<g style="fill:#FFFFFF; fill-opacity:1.0; 
stroke:#FFFFFF; stroke-width:0; stroke-opacity:1; 
stroke-linecap:round; stroke-linejoin:round;">
<circle cx="51690" cy="36090.9" r="125" /> 
</g>
<g style="fill:#FFFFFF; fill-opacity:1.0; 
stroke:#FFFFFF; stroke-width:39.3701; stroke-opacity:1; 
stroke-linecap:round; stroke-linejoin:round;">
</g>
<g style="fill:#FFFFFF; fill-opacity:1.0; 
stroke:#FFFFFF; stroke-width:0; stroke-opacity:1; 
stroke-linecap:round; stroke-linejoin:round;">
<circle cx="47200.6" cy="36351.1" r="125" /> 
</g>
<g style="fill:#FFFFFF; fill-opacity:1.0; 
stroke:#FFFFFF; stroke-width:39.3701; stroke-opacity:1; 
stroke-linecap:round; stroke-linejoin:round;">
</g>
<g style="fill:#FFFFFF; fill-opacity:1.0; 
stroke:#FFFFFF; stroke-width:0; stroke-opacity:1; 
stroke-linecap:round; stroke-linejoin:round;">
<circle cx="46049.4" cy="33065" r="125" /> 
</g>
<g style="fill:#FFFFFF; fill-opacity:1.0; 
stroke:#FFFFFF; stroke-width:39.3701; stroke-opacity:1; 
stroke-linecap:round; stroke-linejoin:round;">
</g>
<g style="fill:#FFFFFF; fill-opacity:1.0; 
stroke:#FFFFFF; stroke-width:0; stroke-opacity:1; 
stroke-linecap:round; stroke-linejoin:round;">
<circle cx="52328.5" cy="34875" r="125" /> 
</g>
<g style="fill:#FFFFFF; fill-opacity:1.0; 
stroke:#FFFFFF; stroke-width:39.3701; stroke-opacity:1; 
stroke-linecap:round; stroke-linejoin:round;">
</g>
<g style="fill:#FFFFFF; fill-opacity:1.0; 
stroke:#FFFFFF; stroke-width:0; stroke-opacity:1; 
stroke-linecap:round; stroke-linejoin:round;">
<circle cx="50087.5" cy="33354.3" r="125" /> 
</g>
<g style="fill:#FFFFFF; fill-opacity:1.0; 
stroke:#FFFFFF; stroke-width:39.3701; stroke-opacity:1; 
stroke-linecap:round; stroke-linejoin:round;">
</g>
<g style="fill:#FFFFFF; fill-opacity:1.0; 
stroke:#FFFFFF; stroke-width:0; stroke-opacity:1; 
stroke-linecap:round; stroke-linejoin:round;">
<circle cx="54024.5" cy="33354.3" r="125" /> 
</g>
<g style="fill:#FFFFFF; fill-opacity:1.0; 
stroke:#FFFFFF; stroke-width:39.3701; stroke-opacity:1; 
stroke-linecap:round; stroke-linejoin:round;">
</g>
<g style="fill:#FFFFFF; fill-opacity:1.0; 
stroke:#FFFFFF; stroke-width:0; stroke-opacity:1; 
stroke-linecap:round; stroke-linejoin:round;">
<circle cx="48484" cy="38750" r="125" /> 
</g>
<g style="fill:#FFFFFF; fill-opacity:1.0; 
stroke:#FFFFFF; stroke-width:39.3701; stroke-opacity:1; 
stroke-linecap:round; stroke-linejoin:round;">
</g>
<g style="fill:#FFFFFF; fill-opacity:1.0; 
stroke:#FFFFFF; stroke-width:0; stroke-opacity:1; 
stroke-linecap:round; stroke-linejoin:round;">
<circle cx="49663" cy="36969.2" r="125" /> 
</g>
<g style="fill:#FFFFFF; fill-opacity:1.0; 
stroke:#FFFFFF; stroke-width:39.3701; stroke-opacity:1; 
stroke-linecap:round; stroke-linejoin:round;">
</g>
<g style="fill:#FFFFFF; fill-opacity:1.0; 
stroke:#FFFFFF; stroke-width:0; stroke-opacity:1; 
stroke-linecap:round; stroke-linejoin:round;">
<circle cx="49065" cy="39305" r="125" /> 
</g>
<g style="fill:#FFFFFF; fill-opacity:1.0; 
stroke:#FFFFFF; stroke-width:39.3701; stroke-opacity:1; 
stroke-linecap:round; stroke-linejoin:round;">
</g>
<g style="fill:#FFFFFF; fill-opacity:1.0; 
stroke:#FFFFFF; stroke-width:0; stroke-opacity:1; 
stroke-linecap:round; stroke-linejoin:round;">
<circle cx="48010" cy="39305" r="125" /> 
</g>
<g style="fill:#FFFFFF; fill-opacity:1.0; 
stroke:#FFFFFF; stroke-width:39.3701; stroke-opacity:1; 
stroke-linecap:round; stroke-linejoin:round;">
</g>
<g style="fill:#FFFFFF; fill-opacity:1.0; 
stroke:#FFFFFF; stroke-width:0; stroke-opacity:1; 
stroke-linecap:round; stroke-linejoin:round;">
<circle cx="48004.6" cy="39733.7" r="125" /> 
</g>
<g style="fill:#FFFFFF; fill-opacity:1.0; 
stroke:#FFFFFF; stroke-width:39.3701; stroke-opacity:1; 
stroke-linecap:round; stroke-linejoin:round;">
</g>
<g style="fill:#FFFFFF; fill-opacity:1.0; 
stroke:#FFFFFF; stroke-width:0; stroke-opacity:1; 
stroke-linecap:round; stroke-linejoin:round;">
<circle cx="50874.9" cy="39811" r="125" /> 
</g>
<g style="fill:#FFFFFF; fill-opacity:1.0; 
stroke:#FFFFFF; stroke-width:39.3701; stroke-opacity:1; 
stroke-linecap:round; stroke-linejoin:round;">
</g>
<g style="fill:#FFFFFF; fill-opacity:1.0; 
stroke:#FFFFFF; stroke-width:0; stroke-opacity:1; 
stroke-linecap:round; stroke-linejoin:round;">
<circle cx="49398.1" cy="34001.5" r="125" /> 
</g>
<g style="fill:#FFFFFF; fill-opacity:1.0; 
stroke:#FFFFFF; stroke-width:39.3701; stroke-opacity:1; 
stroke-linecap:round; stroke-linejoin:round;">
</g>
<g style="fill:#FFFFFF; fill-opacity:1.0; 
stroke:#FFFFFF; stroke-width:334.646; stroke-opacity:1; 
stroke-linecap:round; stroke-linejoin:round;">
</g>
<g style="fill:#FFFFFF; fill-opacity:0.0; 
stroke:#FFFFFF; stroke-width:334.646; stroke-opacity:1; 
stroke-linecap:round; stroke-linejoin:round;">
<path d="M47250 37222
L47466 37222
" />
<path d="M47250 40057
L47466 40057
" />
</g>
<g style="fill:#FFFFFF; fill-opacity:0.0; 
stroke:#FFFFFF; stroke-width:216.535; stroke-opacity:1; 
stroke-linecap:round; stroke-linejoin:round;">
<path d="M45852 37222
L46108 37222
" />
<path d="M45852 40057
L46108 40057
" />
</g>
<g style="fill:#FFFFFF; fill-opacity:1.0; 
stroke:#FFFFFF; stroke-width:0; stroke-opacity:1; 
stroke-linecap:round; stroke-linejoin:round;">
<circle cx="46945" cy="37852.6" r="157.48" /> 
</g>
<g style="fill:#FFFFFF; fill-opacity:1.0; 
stroke:#FFFFFF; stroke-width:39.3701; stroke-opacity:1; 
stroke-linecap:round; stroke-linejoin:round;">
</g>
<g style="fill:#FFFFFF; fill-opacity:1.0; 
stroke:#FFFFFF; stroke-width:0; stroke-opacity:1; 
stroke-linecap:round; stroke-linejoin:round;">
<circle cx="46945" cy="39427.4" r="157.48" /> 
</g>
<g style="fill:#FFFFFF; fill-opacity:1.0; 
stroke:#FFFFFF; stroke-width:39.3701; stroke-opacity:1; 
stroke-linecap:round; stroke-linejoin:round;">
</g>
<g style="fill:#FFFFFF; fill-opacity:1.0; 
stroke:#FFFFFF; stroke-width:0; stroke-opacity:1; 
stroke-linecap:round; stroke-linejoin:round;">
<circle cx="53268.6" cy="32100" r="196.85" /> 
</g>
<g style="fill:#FFFFFF; fill-opacity:1.0; 
stroke:#FFFFFF; stroke-width:39.3701; stroke-opacity:1; 
stroke-linecap:round; stroke-linejoin:round;">
</g>
<g style="fill:#FFFFFF; fill-opacity:1.0; 
stroke:#FFFFFF; stroke-width:0; stroke-opacity:1; 
stroke-linecap:round; stroke-linejoin:round;">
<circle cx="46268.6" cy="32100" r="196.85" /> 
</g>
<g style="fill:#FFFFFF; fill-opacity:1.0; 
stroke:#FFFFFF; stroke-width:39.3701; stroke-opacity:1; 
stroke-linecap:round; stroke-linejoin:round;">
</g>
<g style="fill:#FFFFFF; fill-opacity:1.0; 
stroke:#FFFFFF; stroke-width:0; stroke-opacity:1; 
stroke-linecap:round; stroke-linejoin:round;">
<circle cx="47268.6" cy="32100" r="196.85" /> 
</g>
<g style="fill:#FFFFFF; fill-opacity:1.0; 
stroke:#FFFFFF; stroke-width:39.3701; stroke-opacity:1; 
stroke-linecap:round; stroke-linejoin:round;">
</g>
<g style="fill:#FFFFFF; fill-opacity:1.0; 
stroke:#FFFFFF; stroke-width:0; stroke-opacity:1; 
stroke-linecap:round; stroke-linejoin:round;">
<circle cx="48268.6" cy="32100" r="196.85" /> 
</g>
<g style="fill:#FFFFFF; fill-opacity:1.0; 
stroke:#FFFFFF; stroke-width:39.3701; stroke-opacity:1; 
stroke-linecap:round; stroke-linejoin:round;">
</g>
<g style="fill:#FFFFFF; fill-opacity:1.0; 
stroke:#FFFFFF; stroke-width:0; stroke-opacity:1; 
stroke-linecap:round; stroke-linejoin:round;">
<circle cx="49268.6" cy="32100" r="196.85" /> 
</g>
<g style="fill:#FFFFFF; fill-opacity:1.0; 
stroke:#FFFFFF; stroke-width:39.3701; stroke-opacity:1; 
stroke-linecap:round; stroke-linejoin:round;">
</g>
<g style="fill:#FFFFFF; fill-opacity:1.0; 
stroke:#FFFFFF; stroke-width:0; stroke-opacity:1; 
stroke-linecap:round; stroke-linejoin:round;">
<circle cx="50268.6" cy="32100" r="196.85" /> 
</g>
<g style="fill:#FFFFFF; fill-opacity:1.0; 
stroke:#FFFFFF; stroke-width:39.3701; stroke-opacity:1; 
stroke-linecap:round; stroke-linejoin:round;">
</g>
<g style="fill:#FFFFFF; fill-opacity:1.0; 
stroke:#FFFFFF; stroke-width:0; stroke-opacity:1; 
stroke-linecap:round; stroke-linejoin:round;">
<circle cx="51268.6" cy="32100" r="196.85" /> 
</g>
<g style="fill:#FFFFFF; fill-opacity:1.0; 
stroke:#FFFFFF; stroke-width:39.3701; stroke-opacity:1; 
stroke-linecap:round; stroke-linejoin:round;">
</g>
<g style="fill:#FFFFFF; fill-opacity:1.0; 
stroke:#FFFFFF; stroke-width:0; stroke-opacity:1; 
stroke-linecap:round; stroke-linejoin:round;">
<circle cx="52268.6" cy="32100" r="196.85" /> 
</g>
<g style="fill:#FFFFFF; fill-opacity:1.0; 
stroke:#FFFFFF; stroke-width:39.3701; stroke-opacity:1; 
stroke-linecap:round; stroke-linejoin:round;">
</g>
<g style="fill:#000000; fill-opacity:1.0; 
stroke:#000000; stroke-width:39.3701; stroke-opacity:1; 
stroke-linecap:round; stroke-linejoin:round;">
</g> 
</svg>
